<?xml version="1.0" encoding="UTF-8"?>
<svg width="153px" height="32px" viewBox="0 0 153 32" version="1.1" xmlns="http://www.w3.org/2000/svg" xmlns:xlink="http://www.w3.org/1999/xlink">
    <!-- Generator: Sketch 48.1 (47250) - http://www.bohemiancoding.com/sketch -->
    <title>ktbs biru</title>
    <desc>Created with Sketch.</desc>
    <defs>
        <path d="M13.3027116,19.1774931 C13.4162085,19.1409193 13.5107893,19.1024388 13.6089814,19.0800785 C15.3035251,18.6905932 17.0720137,19.7817413 17.5330521,21.5001911 C17.5701965,21.6381663 17.5959913,21.7792616 17.6339955,21.9172368 C18.0836842,23.5564722 19.5986963,24.5907662 21.2789669,24.4073771 C22.8897637,24.2316147 24.1525031,22.9137436 24.2794133,21.2758948 C24.4025403,19.6867533 23.3716097,18.1929465 21.8464516,17.7481672 C21.1413949,17.5422444 20.4483757,17.5826316 19.752949,17.8117813 C18.1909904,18.3262416 16.5458007,17.5235241 15.8362728,16.2222932 C15.7232918,16.0148104 15.727247,15.8523949 15.8414318,15.6475121 C16.5088282,14.4492426 17.9345905,13.7512199 19.2886433,13.9848763 C19.5546733,14.0308103 19.8153723,14.1088114 20.077963,14.1748522 C21.4468048,14.5182302 22.9018012,13.955756 23.6938723,12.8127805 C24.4737338,11.6880053 24.315182,9.78772635 23.6233666,8.83594017 C22.4110129,7.16810432 19.9699689,7.26655898 18.8986266,8.11365042 C18.1853155,8.67785803 17.7615936,9.3987611 17.5521402,10.2810397 C17.2341768,11.6210978 16.3659252,12.4406288 15.0656974,12.7968336 C14.4846275,12.9559558 13.8956471,12.9415689 13.291018,12.7001123 C13.3027116,12.4893362 13.3004761,12.2825467 13.3279905,12.0795706 C13.4411435,11.2465194 13.8285808,10.5668702 14.4423241,9.99676917 C15.3685279,9.13598422 15.7189926,8.05592964 15.4933745,6.81259285 C15.1924356,5.15325045 13.6820665,3.94943419 11.9238958,4.0636624 C10.0001226,4.18881076 8.50419859,6.0630894 8.82886863,7.97792858 C8.97159962,8.81895327 9.3624762,9.50796257 9.9939319,10.0785836 C10.7724177,10.7816331 11.100699,11.6756985 11.0384477,12.7153659 C9.65275322,13.3197874 8.84795675,14.3405612 8.80582531,15.8419948 C8.7600826,17.4533232 9.59445707,18.5345911 11.0448104,19.1866799 C11.0919288,20.2327607 10.7602082,21.1263061 9.97793915,21.8314356 C9.34682738,22.40015 8.9347991,23.093146 8.83127614,23.9400641 C8.70935291,24.9372642 8.87461133,25.8592367 9.66238327,26.5758063 C9.85360841,26.7500087 10.0171472,26.9564515 10.214735,27.1223337 C10.4102593,27.2863093 10.6161015,27.4556582 10.8461907,27.5570596 C12.3072059,28.202735 14.0246209,27.7076883 14.9413667,26.3941506 C15.8706658,25.0629326 15.7427238,23.2618016 14.6325174,22.0838124 C14.4906462,21.932837 14.3317505,21.7976352 14.191427,21.6454464 C13.5527488,20.9536638 13.266427,20.1339594 13.3027116,19.1774931 Z M31.7328949,16.0742646 C31.7836245,24.429044 25.0494728,32.0020796 15.8983522,31.9999996 C6.82857106,31.9980929 -0.00979148422,24.6275134 1.05241512e-05,15.9941835 C0.0101564626,7.12979713 7.14601856,-0.038326311 15.9102178,0.000154208508 C24.8489616,0.0393280707 31.8085595,7.39465404 31.7328949,16.0742646 Z" id="path-1"></path>
        <ellipse id="path-3" cx="15.6321839" cy="16.5497191" rx="14.5287356" ry="14.6903644"></ellipse>
    </defs>
    <g id="desktop---landing-page-copy-6" stroke="none" stroke-width="1" fill="none" fill-rule="evenodd" transform="translate(-29.000000, -19.000000)">
        <g id="header">
            <g id="ktbs-biru" transform="translate(29.000000, 19.000000)">
                <g id="Icon-Logo-Ktbs-Copy" transform="translate(122.000000, 16.000000)"></g>
                <g id="Group-2">
                    <g id="Path-14">
                        <mask id="mask-2" fill="white">
                            <use xlink:href="#path-1"></use>
                        </mask>
                        <use id="Mask" fill="#3198E8" xlink:href="#path-1"></use>
                        <mask id="mask-4" fill="white">
                            <use xlink:href="#path-3"></use>
                        </mask>
                        <use id="Oval" fill="#3198E8" xlink:href="#path-3"></use>
                    </g>
                    <path d="M11.8891726,17.9935398 L11.8891726,18.396052 C11.8891726,19.3072108 11.8836697,20.2187165 11.8927839,21.1302221 C11.8951914,21.3737065 11.8415383,21.5837205 11.7178954,21.7932142 C11.3548772,22.4081683 10.9897953,23.0229491 10.6560112,23.6543783 C10.2637589,24.3964507 10.5505966,25.3095172 11.2726779,25.7125497 C11.9839253,26.1100328 12.8881176,25.8835437 13.3128713,25.1839597 C13.6370255,24.650167 13.6332422,24.0966042 13.3288641,23.552753 C12.9926724,22.9521929 12.6496021,22.3549278 12.3018887,21.7613045 C12.1937227,21.5760899 12.1369742,21.3901816 12.1386939,21.1723637 C12.1462604,20.2218381 12.1411014,19.2713125 12.142993,18.3207869 C12.143337,18.2071956 12.157782,18.0934308 12.1638008,18.0068932 C12.4831399,17.8844574 12.7909574,17.810753 13.0499367,17.6550202 C13.3207817,17.4918301 13.5443363,17.2497331 13.8040035,17.028967 C13.8423517,17.0468295 13.9016797,17.0704148 13.9568805,17.1009371 C15.3155764,17.8499464 16.6727246,18.6024241 18.0338281,19.3469245 C18.2042455,19.440052 18.3046731,19.5739338 18.3889359,19.7404188 C18.723408,20.4011564 19.0496257,21.0665763 19.4071411,21.7144806 C19.7756622,22.3825019 20.5357477,22.6592833 21.2394288,22.4184002 C21.932276,22.1809856 22.3594372,21.4720368 22.2591816,20.7251085 C22.1613334,19.9958693 21.5546407,19.4442142 20.7973066,19.4045006 C20.1400561,19.370163 19.4824617,19.3366926 18.8245234,19.3177896 C18.5973576,19.311373 18.398394,19.2557045 18.2008062,19.1454082 C16.8568992,18.396052 15.509381,17.6534594 14.1637544,16.906878 C14.0763962,16.8586667 13.9950567,16.7984893 13.8975525,16.7351903 C14.1302212,16.1528394 14.1147444,15.5803736 13.9027115,15.0027052 C13.9785481,14.9513723 14.0387358,14.9042015 14.1051143,14.8672627 C15.4959677,14.0958819 16.8857894,13.3229404 18.2818017,12.5609245 C18.4216093,12.4846188 18.5973576,12.4534029 18.7590047,12.4436912 C19.441878,12.4025903 20.126127,12.3866354 20.8090002,12.3443205 C21.5959123,12.2957623 22.212923,11.6884388 22.267092,10.931452 C22.3243563,10.1371796 21.8426822,9.46985205 21.0786414,9.28446401 C20.3985196,9.11936633 19.7214932,9.43655504 19.3613983,10.1089118 C19.0367283,10.7157152 18.7223762,11.3287617 18.4188579,11.946664 C18.3106918,12.1667364 18.1676169,12.3217756 17.9519727,12.4397025 C16.6476177,13.1535072 15.3492816,13.8784108 14.0483659,14.5986321 C13.9604917,14.6471903 13.8669427,14.6853431 13.7467392,14.7422255 C13.3646328,14.1770434 12.8205354,13.8829198 12.1419612,13.7788667 L12.1419612,13.3685504 C12.1419612,12.7046912 12.182373,12.0373637 12.1312994,11.3773198 C12.0711116,10.600563 12.2558021,9.92595171 12.6936251,9.29036035 C12.964814,8.89651916 13.1974828,8.47042148 13.4052166,8.03808062 C13.7942015,7.22820022 13.3954145,6.26449457 12.5648233,5.94383743 C11.7311367,5.62213975 10.8145629,6.07216965 10.5528321,6.93806533 C10.4223106,7.37023278 10.4711487,7.78661882 10.6969388,8.17993975 C11.0458559,8.78813045 11.3897861,9.39944274 11.7442061,10.0046853 C11.8463533,10.1789743 11.8932998,10.3543039 11.891924,10.5575544 C11.8853894,11.5209132 11.8895165,12.4844454 11.8883128,13.4479776 C11.8883128,13.5501231 11.877479,13.6524421 11.8735238,13.7238919 C11.5297656,13.8685258 11.198389,13.977955 10.8971062,14.1430527 C10.5739838,14.3199431 10.3449264,14.6090374 10.1803558,14.9432215 C10.0226638,15.264052 9.94734315,15.6032653 9.96110035,15.9620753 C9.9987607,16.9609856 10.5813783,17.5863451 11.8891726,17.9935398 M13.1431418,19.1053477 C13.1068572,20.0622899 13.393179,20.8824022 14.0318572,21.5745291 C14.1723527,21.7267936 14.3310764,21.8620627 14.4731196,22.0131132 C15.583154,23.191862 15.711268,24.9937158 14.7817969,26.3255962 C13.8652231,27.6397876 12.1476361,28.1350806 10.6866209,27.4890839 C10.4567037,27.3876321 10.2506895,27.2181989 10.0551652,27.0541417 C9.85757739,26.888177 9.69421058,26.6816314 9.50281347,26.5073424 C8.71504154,25.7904162 8.54978311,24.8679849 8.67187831,23.8702886 C8.77540127,23.0229491 9.18725759,22.3296082 9.81836935,21.7606108 C10.6008104,21.0551305 10.932531,20.1611404 10.8852406,19.1145391 C9.43488727,18.4621258 8.60068477,17.3803198 8.64625551,15.7681896 C8.68855892,14.2660089 9.49335539,13.2447271 10.8788779,12.6400049 C10.9413012,11.5998202 10.6130199,10.7054833 9.83436211,10.0019105 C9.20290641,9.43100553 8.81202983,8.74165337 8.66947079,7.90021019 C8.34480076,5.98441816 9.84072481,4.10920686 11.764326,3.98399623 C13.5224967,3.86971118 15.0330378,5.07412646 15.3338047,6.73429457 C15.5595948,7.97825005 15.20913,9.05884208 14.2827543,9.92005537 C13.6691829,10.4904401 13.2815737,11.1704275 13.1685926,12.0038932 C13.1410782,12.2069703 13.1431418,12.4138627 13.1316201,12.6247437 C13.7362493,12.8663205 14.3250577,12.8808879 14.9062996,12.7215132 C16.2063554,12.3651311 17.074607,11.5451922 17.3927423,10.2044673 C17.6020238,9.32192314 18.0257457,8.60048793 18.7390568,8.03599955 C19.8103991,7.1884866 22.2516151,7.08998294 23.4639688,8.75864872 C24.1557842,9.71090852 24.314164,11.6121331 23.5343025,12.737468 C22.7422314,13.8810122 21.287235,14.4437663 19.9183932,14.1002175 C19.6559745,14.0341437 19.3951035,13.9561039 19.1290736,13.9101471 C17.7751926,13.6763743 16.3492584,14.3747444 15.681862,15.5736102 C15.5678491,15.7787683 15.5638939,15.9410912 15.676875,16.1486773 C16.3862309,17.4505557 18.0315925,18.2536726 19.5935512,17.7389564 C20.2889779,17.5096926 20.9818251,17.4694587 21.6870538,17.6753105 C23.2122119,18.1203112 24.2429705,19.6150348 24.1200155,21.204967 C23.9931052,22.8434574 22.7301939,24.1619843 21.1193971,24.3378341 C19.4391266,24.5214879 17.9242863,23.4865059 17.4744258,21.8464547 C17.4365934,21.7084108 17.4106267,21.5672454 17.3734823,21.429375 C16.9126159,19.7098966 15.1441272,18.618379 13.4495835,19.0078846 C13.3512195,19.0304295 13.2568107,19.0687557 13.1431418,19.1053477" id="Fill-30" fill="#FFFFFF"></path>
                    <path d="M11.8891726,17.9935398 C10.5813783,17.5863451 9.9987607,16.9609856 9.96110035,15.9620753 C9.94734315,15.6032653 10.0226638,15.264052 10.1803558,14.9432215 C10.3449264,14.6090374 10.5739838,14.3199431 10.8971062,14.1430527 C11.198389,13.977955 11.5297656,13.8685258 11.8735238,13.7238919 C11.877479,13.6524421 11.8883128,13.5501231 11.8883128,13.4479776 C11.8895165,12.4844454 11.8853894,11.5209132 11.891924,10.5575544 C11.8932998,10.3543039 11.8463533,10.1789743 11.7442061,10.0046853 C11.3897861,9.39944274 11.0458559,8.78813045 10.6969388,8.17993975 C10.4711487,7.78661882 10.4223106,7.37023278 10.5528321,6.93806533 C10.8145629,6.07216965 11.7311367,5.62213975 12.5648233,5.94383743 C13.3954145,6.26449457 13.7942015,7.22820022 13.4052166,8.03808062 C13.1974828,8.47042148 12.964814,8.89651916 12.6936251,9.29036035 C12.2558021,9.92595171 12.0711116,10.600563 12.1312994,11.3773198 C12.182373,12.0373637 12.1419612,12.7046912 12.1419612,13.3685504 L12.1419612,13.7788667 C12.8205354,13.8829198 13.3646328,14.1770434 13.7467392,14.7422255 C13.8669427,14.6853431 13.9604917,14.6471903 14.0483659,14.5986321 C15.3492816,13.8784108 16.6476177,13.1535072 17.9519727,12.4397025 C18.1676169,12.3217756 18.3106918,12.1667364 18.4188579,11.946664 C18.7223762,11.3287617 19.0367283,10.7157152 19.3613983,10.1089118 C19.7214932,9.43655504 20.3985196,9.11936633 21.0786414,9.28446401 C21.8426822,9.46985205 22.3243563,10.1371796 22.267092,10.931452 C22.212923,11.6884388 21.5959123,12.2957623 20.8090002,12.3443205 C20.126127,12.3866354 19.441878,12.4025903 18.7590047,12.4436912 C18.5973576,12.4534029 18.4216093,12.4846188 18.2818017,12.5609245 C16.8857894,13.3229404 15.4959677,14.0958819 14.1051143,14.8672627 C14.0387358,14.9042015 13.9785481,14.9513723 13.9027115,15.0027052 C14.1147444,15.5803736 14.1302212,16.1528394 13.8975525,16.7351903 C13.9950567,16.7984893 14.0763962,16.8586667 14.1637544,16.906878 C15.509381,17.6534594 16.8568992,18.396052 18.2008062,19.1454082 C18.398394,19.2557045 18.5973576,19.311373 18.8245234,19.3177896 C19.4824617,19.3366926 20.1400561,19.370163 20.7973066,19.4045006 C21.5546407,19.4442142 22.1613334,19.9958693 22.2591816,20.7251085 C22.3594372,21.4720368 21.932276,22.1809856 21.2394288,22.4184002 C20.5357477,22.6592833 19.7756622,22.3825019 19.4071411,21.7144806 C19.0496257,21.0665763 18.723408,20.4011564 18.3889359,19.7404188 C18.3046731,19.5739338 18.2042455,19.440052 18.0338281,19.3469245 C16.6727246,18.6024241 15.3155764,17.8499464 13.9568805,17.1009371 C13.9016797,17.0704148 13.8423517,17.0468295 13.8040035,17.028967 C13.5443363,17.2497331 13.3207817,17.4918301 13.0499367,17.6550202 C12.7909574,17.810753 12.4831399,17.8844574 12.1638008,18.0068932 C12.157782,18.0934308 12.143337,18.2071956 12.142993,18.3207869 C12.1411014,19.2713125 12.1462604,20.2218381 12.1386939,21.1723637 C12.1369742,21.3901816 12.1937227,21.5760899 12.3018887,21.7613045 C12.6496021,22.3549278 12.9926724,22.9521929 13.3288641,23.552753 C13.6332422,24.0966042 13.6370255,24.650167 13.3128713,25.1839597 C12.8881176,25.8835437 11.9839253,26.1100328 11.2726779,25.7125497 C10.5505966,25.3095172 10.2637589,24.3964507 10.6560112,23.6543783 C10.9897953,23.0229491 11.3548772,22.4081683 11.7178954,21.7932142 C11.8415383,21.5837205 11.8951914,21.3737065 11.8927839,21.1302221 C11.8836697,20.2187165 11.8891726,19.3072108 11.8891726,18.396052 L11.8891726,17.9935398 Z" id="Fill-31" fill="#3198E8"></path>
                </g>
                <g id="Group" transform="translate(39.000000, 7.000000)" fill="#3198E8">
                    <path d="M4.78307631,10.2101057 C4.57671575,10.4278915 4.38590058,10.6270532 4.19713534,10.828396 C3.89289019,11.152558 3.59684479,11.4847738 3.2838874,11.8003787 C3.12826285,11.9569228 3.07445194,12.125044 3.07547691,12.3403131 C3.08231004,13.8770625 3.0790643,15.4138118 3.0790643,16.9505612 L3.0790643,17.4176766 L0.054891424,17.4176766 L0.054891424,0.74011219 L3.06505639,0.74011219 C3.06983958,1.11880455 3.07616022,1.50320162 3.07855182,1.88759869 C3.08111424,2.26545212 3.0790643,2.64330555 3.0790643,3.02115898 L3.0790643,4.19263883 L3.0790643,5.36428648 L3.0790643,6.49784676 L3.0790643,7.65959505 C3.10417606,7.6718434 3.12928782,7.68409176 3.15439957,7.69667569 C3.2457927,7.60238012 3.33974824,7.51009798 3.42806646,7.41311783 C5.36833396,5.28156812 7.31082223,3.15203183 9.24271915,1.01326733 C9.43883,0.796320404 9.6345992,0.70370269 9.93132791,0.708568476 C10.995588,0.725347047 12.060019,0.714944333 13.1244499,0.714944333 L13.4854101,0.714944333 C13.506422,0.753535047 13.5158175,0.764105547 13.517355,0.775850547 C13.5194049,0.787259976 13.5165008,0.801689547 13.5101802,0.811421119 C13.4898516,0.842964833 13.4702064,0.875683047 13.4445821,0.903032119 C11.2364559,3.27166305 9.0273047,5.63979062 6.81883681,8.00842155 C6.81097871,8.0171464 6.80927043,8.0312404 6.78159625,8.09852248 C9.26099777,11.1656453 11.7591904,14.2565938 14.2893279,17.3871396 C14.1753855,17.4116363 14.1080791,17.4383143 14.0411144,17.4386498 C12.9508884,17.4415022 11.8606624,17.433784 10.770778,17.446368 C10.5396474,17.4492203 10.4258757,17.3317703 10.3045877,17.1774075 C8.78250778,15.2450194 7.25735298,13.314477 5.73322315,11.3834312 C5.49765096,11.0849404 5.26327458,10.7852751 5.02616494,10.487791 C4.95663783,10.4005425 4.87925262,10.3191664 4.78307631,10.2101057" id="Fill-3"></path>
                    <path d="M45.9228288,7.30974505 L45.9228288,7.73373955 C45.9228288,8.77870898 45.922658,9.82300727 45.9228288,10.8679767 C45.9228288,11.7867713 45.9161665,12.7059014 45.9255621,13.624696 C45.9330785,14.3409732 46.2265615,14.7340951 46.927299,14.9116124 C47.295434,15.0047335 47.6840683,15.0523846 48.0645028,15.0609417 C49.5847036,15.0943311 50.3669263,14.4740273 50.6807378,13.0097613 C50.904352,11.9654631 50.9048645,10.9085808 50.8092007,9.85270534 C50.7627354,9.33844213 50.6329059,8.83709841 50.3864007,8.37132527 C50.0654144,7.76545105 49.5708665,7.36393984 48.8967782,7.21813405 C47.9169072,7.0062207 46.9404528,7.11058341 45.9228288,7.30974505 Z M42.8802033,0.169288411 L45.9219747,0.169288411 L45.9219747,4.90554355 C46.467771,4.85050984 46.9612939,4.79295934 47.456525,4.75252298 C48.3067373,4.68322748 49.1504582,4.74916727 49.9736796,4.96342963 C51.8102543,5.44128334 53.0221101,6.59195777 53.5595358,8.36914405 C54.1435977,10.3020355 54.12139,12.255229 53.4548181,14.1664761 C52.767576,16.1359448 51.3194647,17.2564178 49.2321141,17.5614522 C47.9563685,17.7476943 46.6954851,17.6502108 45.488925,17.1775585 C44.1016286,16.6335972 43.2222047,15.6512118 42.9476836,14.1909728 C42.8923353,13.8958377 42.8834522,13.5896288 42.8832814,13.2884534 C42.8793523,9.04414598 42.8803773,4.79967077 42.8802065,0.555195554 L42.8802033,0.169288411 Z" id="Fill-5"></path>
                    <path d="M37.7194844,11.5274752 C37.6420992,11.5049919 37.5713763,11.4749583 37.4975785,11.4643878 C36.7088644,11.3528103 35.9143421,11.2967699 35.1223822,11.3835151 C34.7074403,11.428985 34.2924985,11.5382135 33.897031,11.6736166 C33.494218,11.8113687 33.2055182,12.1036514 33.0750054,12.5160687 C32.7584606,13.5164071 33.3127983,14.5492959 34.3353764,14.8499679 C35.0260351,15.0533242 35.7271143,15.0482907 36.4230687,14.8748002 C37.1728339,14.6882225 37.6441491,14.2157379 37.7085514,13.4560042 C37.7621915,12.8209353 37.7194844,12.1779804 37.7194844,11.5274752 M37.6897603,9.58099315 C37.7222177,8.24441215 36.9531488,7.39373858 35.6167592,7.27444294 C34.3005274,7.15699294 33.0080407,7.30481215 31.7456198,7.69290051 C31.613057,7.73384023 31.4804943,7.77377323 31.3474191,7.81437737 C31.2678131,7.52310137 31.2509011,5.89155308 31.3202574,5.42947123 C31.9116649,5.17292687 32.5415087,5.01235594 33.1850188,4.90413415 C34.4580311,4.69054294 35.7318975,4.64373073 37.0035431,4.92326173 C39.1293301,5.39054494 40.5185056,6.8004483 40.732041,9.15783758 C40.8328296,10.2704247 40.7913184,11.3959312 40.8005431,12.5157331 C40.804643,12.993419 40.8051555,13.4744607 40.752882,13.9481197 C40.6035781,15.2981236 39.8949824,16.2940996 38.6889348,16.9471216 C37.9941763,17.3236327 37.2380903,17.5095393 36.4533053,17.5868885 C35.3087559,17.6994727 34.1730895,17.6600431 33.0662931,17.3219549 C31.7490363,16.9194369 30.7467869,16.1560119 30.2477975,14.8526525 C29.9567061,14.092751 29.888204,13.3076817 30.0762859,12.5138874 C30.325866,11.4611999 30.9504142,10.6809963 31.9116649,10.1608606 C32.677488,9.74693323 33.5107883,9.56203337 34.3714211,9.47562373 C35.3070476,9.38216708 36.2399408,9.41773765 37.1711257,9.53401315 C37.3340958,9.55431523 37.4984326,9.56387901 37.6897603,9.58099315" id="Fill-7"></path>
                    <path d="M79.5433016,11.5232302 C79.463354,11.500747 79.4037349,11.4767536 79.3417243,11.467861 C78.5538643,11.3520888 77.7598545,11.2980618 76.9682363,11.3826258 C76.5532944,11.4269212 76.1392067,11.5366531 75.7422018,11.6676937 C75.3667212,11.7916874 75.0851963,12.0562855 74.9370881,12.4302798 C74.5754447,13.343873 75.0672593,14.4640105 76.0040815,14.7948839 C76.8249114,15.0848176 77.6653865,15.0802874 78.4898037,14.7974007 C79.1170851,14.581796 79.4874408,14.1202175 79.5330519,13.4767593 C79.5786631,12.8400125 79.5433016,12.1978966 79.5433016,11.5232302 M73.1256252,7.82439418 L73.1256252,5.47707203 C73.1567159,5.4492196 73.1801194,5.41331346 73.2124059,5.40156846 C75.1357614,4.70492218 77.102849,4.48814303 79.1025647,4.9970371 C81.0927141,5.5032466 82.1921648,6.83244503 82.524255,8.79553789 C82.5913905,9.19084103 82.6129148,9.59721803 82.6170147,9.99872925 C82.6291435,11.1326251 82.6250436,12.2663532 82.6211146,13.4004168 C82.6146231,15.2000864 81.6564474,16.562003 79.9440648,17.2073069 C78.7665455,17.6509323 77.5425609,17.7002613 76.3052518,17.5953952 C75.6644749,17.5410327 75.038731,17.4039517 74.4403195,17.1645215 C72.1344795,16.2423712 71.5384597,14.1418619 71.9195776,12.486488 C72.17377,11.383297 72.860158,10.6035967 73.8731697,10.0930248 C74.6020939,9.72540632 75.3890997,9.55711725 76.1979716,9.47557339 C77.1341105,9.3814456 78.0675162,9.41869403 78.9995553,9.53379503 C79.1628671,9.5540971 79.3273747,9.56416425 79.4886366,9.57892939 C79.6457986,8.80073925 79.1931037,7.93983075 78.4412885,7.55526589 C77.9132583,7.28479532 77.3397878,7.22724482 76.7594841,7.23294953 C75.599731,7.24402339 74.4575732,7.37858753 73.3574391,7.76483025 C73.2995283,7.78513232 73.238201,7.7958706 73.1256252,7.82439418" id="Fill-9"></path>
                    <path d="M61.708591,13.9749654 C61.8775402,14.0665764 61.9885785,14.1247981 62.0977378,14.1862077 C63.388687,14.9108742 64.7718836,15.1748011 66.2452774,14.9865455 C66.359049,14.9717804 66.4723082,14.9466125 66.5833465,14.91725 C66.989747,14.8103705 67.3175664,14.6254707 67.3910226,14.1657378 C67.4699453,13.6719444 67.354807,13.251809 66.8956206,12.9959358 C66.585909,12.8236199 66.2531355,12.683351 65.9166038,12.5670755 C65.3612411,12.3754642 64.7869164,12.2355309 64.235312,12.0346914 C63.7809088,11.8692547 63.3278722,11.6815025 62.9093429,11.4437502 C61.9414299,10.8932452 61.4284326,10.0526388 61.3549765,8.94810544 C61.2352259,7.14491237 62.1141373,5.73249223 63.8451402,5.11772537 C65.7596126,4.43768987 67.6252282,4.64574415 69.4158501,5.5754448 C69.4489908,5.59272673 69.4749567,5.62343151 69.5151013,5.65682087 L69.5151013,7.88719637 C69.3763888,7.83451165 69.2631296,7.79004844 69.1486747,7.74927651 C67.9304983,7.31404037 66.6827686,7.18752994 65.4056564,7.42242994 C65.2201369,7.45649044 65.032055,7.52377251 64.8673766,7.6143768 C64.2699901,7.94357237 64.2202791,8.65112473 64.7754709,9.04072315 C64.9907146,9.1917303 65.2430279,9.30481787 65.4944871,9.39005301 C66.0028721,9.5616978 66.5274857,9.68653037 67.0351873,9.86052415 C67.5056484,10.0212629 67.9803801,10.186364 68.4226545,10.4088479 C69.7095039,11.0565007 70.3548931,12.1257991 70.4527777,13.5286554 C70.4958264,14.1509727 70.4541443,14.7612093 70.183894,15.3397344 C69.802947,16.1550052 69.1700282,16.7174229 68.3603022,17.1048402 C67.7535202,17.3956128 67.1074477,17.5555126 66.4400216,17.6098752 C64.8863385,17.7363856 63.4014992,17.4790023 62.0051489,16.7805104 C61.9038477,16.7300069 61.8083547,16.6679262 61.708591,16.6103757 L61.708591,13.9749654 Z" id="Fill-11"></path>
                    <path d="M22.6213743,7.51045033 L20.5148909,7.51045033 L20.5148909,4.93829533 L22.6131746,4.93829533 C22.6288908,4.29248811 22.6191536,3.6807414 22.6210327,3.06983361 C22.6225701,2.46781847 22.6213743,1.86580333 22.6213743,1.2448284 L25.6677549,1.2448284 C25.6778338,2.46060368 25.6658758,3.67352661 25.6749297,4.92353018 L28.6622037,4.92353018 C28.7084981,5.79400247 28.6786032,6.62689075 28.6842405,7.49719525 L25.7029455,7.49719525 C25.6903042,7.63914197 25.6728797,7.74719597 25.6728797,7.85558554 C25.6713423,9.78193333 25.6699757,11.7086167 25.674588,13.6353 C25.6749297,13.8353006 25.6998706,14.0376502 25.7354029,14.235134 C25.8102257,14.6507392 26.0666389,14.906948 26.4872181,14.9948677 C27.0873378,15.1205392 27.6836993,15.0921834 28.2751068,14.9361427 C28.396224,14.9040956 28.5176829,14.8743975 28.6651077,14.8371491 L28.6651077,17.2604782 C28.2940687,17.4537673 27.881006,17.5319555 27.4646975,17.5878281 C26.7205695,17.6876606 25.9786623,17.6673585 25.2562296,17.4499083 C23.8614168,17.0297728 23.048445,16.0780923 22.7547912,14.6995648 C22.6582732,14.2477179 22.6309407,13.7755689 22.6273533,13.311977 C22.6130038,11.5366363 22.6213743,9.76129568 22.6213743,7.98561947 L22.6213743,7.51045033 Z" id="Fill-13"></path>
                    <path d="M56.155186,4.95614773 L59.1644968,4.95614773 L59.1644968,17.437727 C58.1562684,17.4442707 57.1664894,17.4414183 56.155186,17.4387337 L56.155186,4.95614773 Z" id="Fill-17"></path>
                    <path d="M18.7764058,17.4165357 L15.8463593,17.4165357 C15.769999,17.126602 15.7452289,5.48982375 15.8197101,4.96347996 L18.7598354,4.96347996 C18.842858,5.22052768 18.8648948,16.951937 18.7764058,17.4165357" id="Fill-19"></path>
                    <path d="M18.8477949,0.502124933 L18.8477949,3.14374322 C18.5643908,3.22562265 16.4042673,3.25246836 15.7916772,3.18535408 C15.7189043,2.92042043 15.6958425,1.11605286 15.7578532,0.532326361 C16.026566,0.459004004 18.2003558,0.434339504 18.8477949,0.502124933" id="Fill-25"></path>
                    <polygon id="Fill-27" points="56.0990006 3.18793798 59.1894548 3.18793798 59.1894548 0.494809476 56.0990006 0.494809476"></polygon>
                    <path d="M83.8880258,17.28 L83.8880258,15.3646875 L85.9433143,15.3646875 L85.9433143,17.28 L83.8880258,17.28 Z M86.8111028,13.5693892 C86.8111028,12.286954 87.124197,11.3051042 87.7503948,10.6238105 C88.3765927,9.94251675 89.2732945,9.601875 90.4405273,9.601875 C91.1919647,9.601875 91.9308671,9.74464397 92.6572566,10.0301862 L92.6572566,11.5706037 C92.0510971,11.3251375 91.4148896,11.2024063 90.7486151,11.2024063 C90.042264,11.2024063 89.517518,11.3639607 89.1743616,11.6870742 C88.8312052,12.0101878 88.6596296,12.6376199 88.6596296,13.5693892 C88.6596296,14.4911396 88.8312052,15.1160669 89.1743616,15.44419 C89.517518,15.7723131 90.042264,15.9363722 90.7486151,15.9363722 C91.3848321,15.9363722 92.0210396,15.8086315 92.6572566,15.5531463 L92.6572566,17.0935638 C91.9308671,17.379106 91.1919647,17.521875 90.4405273,17.521875 C89.2732945,17.521875 88.3765927,17.1812332 87.7503948,16.4999395 C87.124197,15.8186458 86.8111028,14.8418055 86.8111028,13.5693892 Z M93.7534105,13.561875 C93.7534105,12.2870397 94.0682855,11.3083423 94.6980449,10.6257533 C95.3278044,9.94316436 96.2308659,9.601875 97.4072566,9.601875 C98.5836473,9.601875 99.4867088,9.94316436 100.116468,10.6257533 C100.746228,11.3083423 101.061103,12.2870397 101.061103,13.561875 C101.061103,14.8367103 100.746228,15.8154077 100.116468,16.4979967 C99.4867088,17.1805856 98.5836473,17.521875 97.4072566,17.521875 C96.2308659,17.521875 95.3278044,17.1805856 94.6980449,16.4979967 C94.0682855,15.8154077 93.7534105,14.8367103 93.7534105,13.561875 Z M95.5803335,13.5657639 C95.5803335,14.5535466 95.730332,15.2198362 96.0303335,15.5646528 C96.330335,15.9094693 96.7905868,16.081875 97.4111028,16.081875 C98.0316187,16.081875 98.4905885,15.9094693 98.7880258,15.5646528 C99.0854632,15.2198362 99.2341797,14.5535466 99.2341797,13.5657639 C99.2341797,12.5779812 99.0854632,11.9103953 98.7880258,11.5629861 C98.4905885,11.215577 98.0316187,11.041875 97.4111028,11.041875 C96.7905868,11.041875 96.330335,11.215577 96.0303335,11.5629861 C95.730332,11.9103953 95.5803335,12.5779812 95.5803335,13.5657639 Z M102.157257,17.521875 L102.157257,10.4717016 C103.311493,9.8918143 104.445374,9.601875 105.558933,9.601875 L105.589441,9.601875 C106.433508,9.601875 107.137734,9.79262454 107.702141,10.1741293 C108.668242,9.79262454 109.603821,9.601875 110.508905,9.601875 C111.561447,9.601875 112.381349,9.88799931 112.968637,10.4602565 C113.555925,11.0325137 113.849564,11.8247601 113.849564,12.8370195 L113.849564,17.521875 L111.980931,17.521875 L111.980931,12.7073085 C111.980931,12.2088089 111.855085,11.8323965 111.60339,11.57806 C111.351696,11.3237234 110.882635,11.1965571 110.196195,11.1965571 C109.657212,11.1965571 109.125864,11.2575969 108.602136,11.3796785 C108.82078,11.6289283 108.9301,12.1147038 108.9301,12.8370195 L108.9301,17.521875 L107.076721,17.521875 L107.076721,12.6615282 C107.076721,12.1833755 106.953418,11.8247664 106.706808,11.58569 C106.460197,11.3466137 105.998764,11.2270773 105.322493,11.2270773 C104.875036,11.2270773 104.442839,11.2677705 104.02589,11.3491582 L104.02589,17.521875 L102.157257,17.521875 Z" id=".com"></path>
                </g>
            </g>
        </g>
    </g>
</svg>